<svg xmlns="http://www.w3.org/2000/svg" xmlns:xlink="http://www.w3.org/1999/xlink" width="600" height="311" version="1.1" viewBox="0 0 600 311"><title>cf-01</title><desc>Created with Sketch.</desc><defs><path id="path-1" d="M7.89526247,0 L546.871702,0 L546.871702,1.77635684e-15 C547.730028,6.3368725e-14 548.43284,0.682373287 548.458163,1.54032512 L555.550062,241.810614 L555.550062,241.810614 C555.553712,241.934276 555.54289,242.057942 555.517818,242.179091 L550.793651,265.00627 L5.55555556,265.00627 L0.0492959973,242.200914 L0.0492959973,242.200914 C0.0165746375,242.065391 0.00185220187,241.926148 0.00550878646,241.786779 L6.30865683,1.54552427 L6.30865683,1.54552427 C6.33122171,0.685475139 7.03491738,5.93120256e-15 7.89526247,5.77315973e-15 Z"/><polygon id="path-3" points="0 0 555.556 0 550.794 23.01 5.556 23.01"/><path id="path-5" d="M16.3429632,0 L530.37609,0 L530.37609,0 C535.550149,-9.50459197e-16 539.777538,4.1312983 539.896483,9.3039898 L544.220433,197.343908 L544.220433,197.343908 C544.341339,202.601876 540.176927,206.962315 534.918959,207.083221 C534.845998,207.084899 534.77302,207.085738 534.700039,207.085738 L9.85703965,207.085738 L9.85703965,207.085738 C4.5976818,207.085738 0.334129871,202.822186 0.334129871,197.562828 C0.334129871,197.45338 0.336016729,197.34394 0.339789604,197.234557 L6.8257132,9.19463822 L6.8257132,9.19463822 C7.0026081,4.06610062 11.2113758,2.71901416e-15 16.3429632,1.77635684e-15 Z"/><rect id="path-7" width="519.841" height="176.142" x="0" y="0" rx="9.523"/><rect id="path-9" width="15.873" height="31.737" x="0" y="0" rx="4.761"/><rect id="path-11" width="47.619" height="31.737" x="0" y="0" rx="4.761"/><rect id="path-13" width="47.619" height="31.737" x="0" y="0" rx="4.761"/><rect id="path-15" width="47.619" height="31.737" x="0" y="0" rx="4.761"/><rect id="path-17" width="47.619" height="31.737" x="0" y="0" rx="4.761"/><rect id="path-19" width="47.619" height="31.737" x="0" y="0" rx="4.761"/><rect id="path-21" width="47.619" height="31.737" x="0" y="0" rx="4.761"/><rect id="path-23" width="47.619" height="31.737" x="0" y="0" rx="4.761"/><rect id="path-25" width="47.619" height="31.737" x="0" y="0" rx="4.761"/><rect id="path-27" width="47.619" height="31.737" x="0" y="0" rx="4.761"/><rect id="path-29" width="47.619" height="31.737" x="0" y="0" rx="4.761"/><rect id="path-31" width="47.619" height="31.737" x="0" y="0" rx="4.761"/><path id="path-33" d="M5.55555556,265.00627 L550.793651,265.00627 L550.793651,296.736306 L550.793651,296.736306 C550.793651,297.612866 550.083059,298.323458 549.206499,298.323458 C549.204186,298.323458 549.201873,298.323453 549.19956,298.323443 L7.88940669,295.95685 L7.88940669,295.95685 C7.03140153,295.953099 6.33171493,295.268139 6.30971575,294.410407 L5.55555556,265.00627 Z"/><polygon id="path-34" points="2.608 0 485.147 0 486.684 21.886 483.56 45.226 3.401 45.226 .012 21.031"/></defs><g id="Page-1" fill="none" stroke="none" fillRule="evenodd" strokeWidth="1"><g id="Desktop-HD" transform="translate(-390.000000, -357.000000)"><g id="kl10" transform="translate(390.000000, 357.000000)"><g id="cf-01"><ellipse id="shadow" cx="300" cy="297.933" fill="#000" opacity=".21" rx="300" ry="12.695"/><g transform="translate(22.222222, 0.000000)"><g id="bg"><mask id="mask-2" fill="#fff"><use xlink:href="#path-1"/></mask><use id="Rectangle-17" fill="#F4F1F5" xlink:href="#path-1"/><g id="lower-bevel--shadow" mask="url(#mask-2)"><g transform="translate(0.000000, 241.996744)"><mask id="mask-4" fill="#fff"><use xlink:href="#path-3"/></mask><g id="Rectangle-20" fill="none" stroke="none" fillRule="evenodd"><use fill="#F4F1F5" xlink:href="#path-3"/><use fill="#000" fillOpacity=".17" xlink:href="#path-3"/></g><rect id="Rectangle-21" width="555.556" height="3.967" x="0" y="0" fill="#FFF" stroke="none" fillRule="evenodd" mask="url(#mask-4)" opacity=".5"/></g></g><g id="inner-bevel" mask="url(#mask-2)"><g transform="translate(5.555556, 34.911006)"><mask id="mask-6" fill="#fff"><use xlink:href="#path-5"/></mask><use id="Rectangle-5-Copy" fill="#585040" stroke="none" fillRule="evenodd" xlink:href="#path-5"/><polygon id="Path-2" fill="#FFF" stroke="none" points="26.19 177.729 5.556 207.086 544.444 213.433 524.603 183.283" fillRule="evenodd" mask="url(#mask-6)" opacity=".2"/></g></g></g><g id="panel-background" transform="translate(19.841270, 42.051893)"><g id="Group-2"><g id="Group-7"><mask id="mask-8" fill="#fff"><use xlink:href="#path-7"/></mask><use id="Rectangle-5" fill="#1D1E31" xlink:href="#path-7"/><polygon id="shadow" fill="#000" points="525.397 5.554 -7.937 14.282 -.794 -11.901 525.397 -17.456" mask="url(#mask-8)" opacity=".4"/></g><rect id="Rectangle-3" width="306.349" height="52.367" x="30.159" y="34.118" fill="#F4F1F5" rx="6.349"/><path id="Rectangle-3-Copy-2" fill="#F4F1F5" d="M36.5073367,118.22136 L419.048219,118.22136 L419.048219,118.22136 C422.554457,118.22136 425.396825,121.063728 425.396825,124.569967 L425.396825,176.141892 L30.1587302,176.141892 L30.1587302,124.569967 L30.1587302,124.569967 C30.1587302,121.063728 33.0010981,118.22136 36.5073367,118.22136 Z"/><path id="Rectangle-3-Copy-4" fill="#F4F1F5" d="M199.205749,142.024318 L486.508536,142.024318 L486.508536,142.024318 C490.014775,142.024318 492.857143,144.866686 492.857143,148.372925 L492.857143,176.141892 L192.857143,176.141892 L192.857143,148.372925 L192.857143,148.372925 C192.857143,144.866686 195.699511,142.024318 199.205749,142.024318 Z"/><rect id="Rectangle-3-Copy" width="291.27" height="72.202" x="45.238" y="60.301" fill="#F4F1F5" rx="6.349"/><rect id="Rectangle-6" width="183.333" height="84.897" x="336.508" y="57.127" fill="#1D1E31" rx="14.284"/></g><rect id="Rectangle-3-Copy-3" width="47.619" height="31.737" x="7.937" y="86.484" fill="#1D1E31" rx="6.349"/></g><g id="keyhole" transform="translate(46.825397, 134.089999)"><ellipse id="Oval" cx="9.921" cy="9.918" fill="#070D0D" rx="9.921" ry="9.918"/><ellipse id="Oval-2" cx="9.921" cy="9.918" fill="#98979D" rx="5.159" ry="5.157"/></g><rect id="Rectangle-7" width="126.984" height="33.324" x="376.19" y="128.536" fill="#F4F1F5" rx="3.174"/><rect id="Rectangle-8" width="9.58" height="10.315" x="394.444" y="148.372" fill="#1D1E31" rx=".794"/><rect id="Rectangle-8-Copy-3" width="9.58" height="10.315" x="394.444" y="134.09" fill="#1D1E31" rx=".794"/><rect id="Rectangle-8-Copy" width="9.58" height="10.315" x="426.19" y="148.372" fill="#1D1E31" rx=".794"/><rect id="Rectangle-8-Copy-4" width="9.58" height="10.315" x="426.19" y="134.09" fill="#1D1E31" rx=".794"/><rect id="Rectangle-8-Copy-2" width="9.58" height="10.315" x="457.143" y="148.372" fill="#1D1E31" rx=".794"/><rect id="Rectangle-8-Copy-5" width="9.58" height="10.315" x="457.143" y="134.09" fill="#1D1E31" rx=".794"/><g id="top-toggles" transform="translate(56.000000, 83.000000)"><g id="Group-Copy-7" transform="translate(30.507937, 45.535975)"><mask id="mask-10" fill="#fff"><use xlink:href="#path-9"/></mask><use id="Rectangle" fill="#444" opacity=".9" xlink:href="#path-9"/><rect id="Rectangle-2" width="15.873" height="15.869" x="0" y="0" fill="#FAAE40" mask="url(#mask-10)"/><rect id="Rectangle-2-Copy" width="15.873" height="15.869" x="0" y="15.075" fill="#2B3140" mask="url(#mask-10)"/></g><g id="Group" transform="translate(0.349206, 0.310354)"><mask id="mask-12" fill="#fff"><use xlink:href="#path-11"/></mask><use id="Rectangle" fill="#444" opacity=".9" xlink:href="#path-11"/><rect id="Rectangle-2" width="47.619" height="15.869" x="0" y="0" fill="#FAAE40" mask="url(#mask-12)"/><rect id="Rectangle-2-Copy" width="47.619" height="15.869" x="0" y="15.075" fill="#2B3140" mask="url(#mask-12)"/></g><g id="Group-Copy-3" transform="translate(98.761905, 0.310354)"><mask id="mask-14" fill="#fff"><use xlink:href="#path-13"/></mask><use id="Rectangle" fill="#444" opacity=".9" xlink:href="#path-13"/><rect id="Rectangle-2" width="47.619" height="15.869" x="0" y="0" fill="#FAAE40" mask="url(#mask-14)"/><rect id="Rectangle-2-Copy" width="47.619" height="15.869" x="0" y="15.075" fill="#2B3140" mask="url(#mask-14)"/></g><g id="Group-Copy-11" transform="translate(197.174603, 45.535975)"><mask id="mask-16" fill="#fff"><use xlink:href="#path-15"/></mask><use id="Rectangle" fill="#444" opacity=".9" xlink:href="#path-15"/><rect id="Rectangle-2" width="47.619" height="15.869" x="0" y="0" fill="#FAAE40" mask="url(#mask-16)"/><rect id="Rectangle-2-Copy" width="47.619" height="15.869" x="0" y="15.075" fill="#2B3140" mask="url(#mask-16)"/></g><g id="Group-Copy-5" transform="translate(197.174603, 0.310354)"><mask id="mask-18" fill="#fff"><use xlink:href="#path-17"/></mask><use id="Rectangle" fill="#444" opacity=".9" xlink:href="#path-17"/><rect id="Rectangle-2" width="47.619" height="15.869" x="0" y="0" fill="#FAAE40" mask="url(#mask-18)"/><rect id="Rectangle-2-Copy" width="47.619" height="15.869" x="0" y="15.075" fill="#2B3140" mask="url(#mask-18)"/></g><g id="Group-Copy-2" transform="translate(49.555556, 0.310354)"><mask id="mask-20" fill="#fff"><use xlink:href="#path-19"/></mask><use id="Rectangle" fill="#444" opacity=".9" xlink:href="#path-19"/><rect id="Rectangle-2" width="47.619" height="15.869" x="0" y="0" fill="#F38020" mask="url(#mask-20)"/><rect id="Rectangle-2-Copy" width="47.619" height="15.869" x="0" y="15.075" fill="#2B3140" mask="url(#mask-20)"/></g><g id="Group-Copy-8" transform="translate(47.968254, 45.535975)"><mask id="mask-22" fill="#fff"><use xlink:href="#path-21"/></mask><use id="Rectangle" fill="#444" opacity=".9" xlink:href="#path-21"/><rect id="Rectangle-2" width="47.619" height="15.869" x="0" y="0" fill="#F38020" mask="url(#mask-22)"/><rect id="Rectangle-2-Copy" width="47.619" height="15.869" x="0" y="15.075" fill="#2B3140" mask="url(#mask-22)"/><rect id="Rectangle-4" width="7.937" height="7.934" x="10.374" y="13.545" fill="#2B3140" mask="url(#mask-22)" transform="translate(14.342117, 17.511890) rotate(-315.000000) translate(-14.342117, -17.511890)"/></g><g id="Group-Copy-9" transform="translate(97.968254, 45.535975)"><mask id="mask-24" fill="#fff"><use xlink:href="#path-23"/></mask><use id="Rectangle" fill="#444" opacity=".9" xlink:href="#path-23"/><rect id="Rectangle-2" width="47.619" height="15.869" x="0" y="0" fill="#FAAE40" mask="url(#mask-24)"/><rect id="Rectangle-2-Copy" width="47.619" height="15.869" x="0" y="15.075" fill="#2B3140" mask="url(#mask-24)"/><rect id="Rectangle-4" width="7.937" height="7.934" x="10.374" y="13.545" fill="#2B3140" mask="url(#mask-24)" transform="translate(14.342117, 17.511890) rotate(-315.000000) translate(-14.342117, -17.511890)"/></g><g id="Group-Copy-10" transform="translate(147.174603, 45.535975)"><mask id="mask-26" fill="#fff"><use xlink:href="#path-25"/></mask><use id="Rectangle" fill="#444" opacity=".9" xlink:href="#path-25"/><rect id="Rectangle-2" width="47.619" height="15.869" x="0" y="0" fill="#F38020" mask="url(#mask-26)"/><rect id="Rectangle-2-Copy" width="47.619" height="15.869" x="0" y="15.075" fill="#2B3140" mask="url(#mask-26)"/><rect id="Rectangle-4" width="7.937" height="7.934" x="10.374" y="13.545" fill="#2B3140" mask="url(#mask-26)" transform="translate(14.342117, 17.511890) rotate(-315.000000) translate(-14.342117, -17.511890)"/></g><g id="Group-Copy-4" transform="translate(147.968254, 0.310354)"><mask id="mask-28" fill="#fff"><use xlink:href="#path-27"/></mask><use id="Rectangle" fill="#444" opacity=".9" xlink:href="#path-27"/><rect id="Rectangle-2" width="47.619" height="15.869" x="0" y="0" fill="#F38020" mask="url(#mask-28)"/><rect id="Rectangle-2-Copy" width="47.619" height="15.869" x="0" y="15.075" fill="#2B3140" mask="url(#mask-28)"/></g><g id="Group-Copy-6" transform="translate(246.380952, 0.310354)"><mask id="mask-30" fill="#fff"><use xlink:href="#path-29"/></mask><use id="Rectangle" fill="#444" opacity=".9" xlink:href="#path-29"/><rect id="Rectangle-2" width="47.619" height="15.869" x="0" y="0" fill="#F38020" mask="url(#mask-30)"/><rect id="Rectangle-2-Copy" width="47.619" height="15.869" x="0" y="15.075" fill="#2B3140" mask="url(#mask-30)"/></g><g id="Group-Copy-12" transform="translate(246.380952, 45.535975)"><mask id="mask-32" fill="#fff"><use xlink:href="#path-31"/></mask><use id="Rectangle" fill="#444" opacity=".9" xlink:href="#path-31"/><rect id="Rectangle-2" width="47.619" height="15.869" x="0" y="0" fill="#F38020" mask="url(#mask-32)"/><rect id="Rectangle-2-Copy" width="47.619" height="15.869" x="0" y="15.075" fill="#2B3140" mask="url(#mask-32)"/></g></g><path id="Rectangle-9" fill="#FAAE40" d="M57.936133,201.531714 L96.0321209,201.531714 L96.0321209,201.531714 C98.22352,201.531714 100,203.308194 100,205.499594 L100,218.193785 L53.968254,218.193785 L53.968254,205.499594 L53.968254,205.499594 C53.968254,203.308194 55.7447339,201.531714 57.936133,201.531714 Z"/><path id="Rectangle-9-Copy-2" fill="#FAAE40" d="M154.76153,201.531714 L192.857518,201.531714 L192.857518,201.531714 C195.048917,201.531714 196.825397,203.308194 196.825397,205.499594 L196.825397,218.193785 L150.793651,218.193785 L150.793651,205.499594 L150.793651,205.499594 C150.793651,203.308194 152.570131,201.531714 154.76153,201.531714 Z"/><path id="Rectangle-9-Copy-4" fill="#FAAE40" d="M251.586927,201.531714 L289.682915,201.531714 L289.682915,201.531714 C291.874314,201.531714 293.650794,203.308194 293.650794,205.499594 L293.650794,218.193785 L247.619048,218.193785 L247.619048,205.499594 L247.619048,205.499594 C247.619048,203.308194 249.395528,201.531714 251.586927,201.531714 Z"/><path id="Rectangle-9-Copy-6" fill="#FAAE40" d="M379.364704,201.531714 L389.68254,201.531714 L389.68254,218.193785 L375.396825,218.193785 L375.396825,205.499594 L375.396825,205.499594 C375.396825,203.308194 377.173305,201.531714 379.364704,201.531714 Z"/><rect id="Rectangle-9-Copy-7" width="14.286" height="16.662" x="392.063" y="201.532" fill="#F38020"/><rect id="Rectangle-9-Copy-9" width="14.286" height="16.662" x="423.81" y="201.532" fill="#F38020"/><rect id="Rectangle-9-Copy-8" width="14.286" height="16.662" x="407.937" y="201.532" fill="#FAAE40"/><path id="Rectangle-9-Copy-10" fill="#FAAE40" d="M439.68254,201.531714 L450.000375,201.531714 L450.000375,201.531714 C452.191774,201.531714 453.968254,203.308194 453.968254,205.499594 L453.968254,218.193785 L439.68254,218.193785 L439.68254,201.531714 Z"/><path id="Rectangle-9-Copy-11" fill="#FAAE40" d="M492.856768,201.531714 L499.206724,201.531714 L499.206724,201.531714 C501.398123,201.531714 503.174603,203.308194 503.174603,205.499594 L503.174603,218.193785 L488.888889,218.193785 L488.888889,205.499594 L488.888889,205.499594 C488.888889,203.308194 490.665369,201.531714 492.856768,201.531714 Z"/><path id="Rectangle-9-Copy" fill="#F38020" d="M106.348831,201.531714 L144.444819,201.531714 L144.444819,201.531714 C146.636218,201.531714 148.412698,203.308194 148.412698,205.499594 L148.412698,218.193785 L102.380952,218.193785 L102.380952,205.499594 L102.380952,205.499594 C102.380952,203.308194 104.157432,201.531714 106.348831,201.531714 Z"/><path id="Rectangle-9-Copy-3" fill="#F38020" d="M203.174228,201.531714 L241.270216,201.531714 L241.270216,201.531714 C243.461615,201.531714 245.238095,203.308194 245.238095,205.499594 L245.238095,218.193785 L199.206349,218.193785 L199.206349,205.499594 L199.206349,205.499594 C199.206349,203.308194 200.982829,201.531714 203.174228,201.531714 Z"/><path id="Rectangle-9-Copy-5" fill="#F38020" d="M299.999625,201.531714 L338.095613,201.531714 L338.095613,201.531714 C340.287012,201.531714 342.063492,203.308194 342.063492,205.499594 L342.063492,218.193785 L296.031746,218.193785 L296.031746,205.499594 L296.031746,205.499594 C296.031746,203.308194 297.808226,201.531714 299.999625,201.531714 Z"/><path id="Path-4" stroke="#6A6A6A" strokeLinecap="square" strokeWidth=".794"/><rect id="Rectangle-13" width="2.381" height="1.587" x="371.429" y="237.236" fill="#F9F6F1"/><rect id="Rectangle-13-Copy" width="2.381" height="1.587" x="371.429" y="238.823" fill="#E8E2E4"/><rect id="Rectangle-13-Copy-2" width="2.381" height="1.587" x="371.429" y="240.41" fill="#C8B8A8"/><g id="Rectangle-19"><use fill="#F4F1F5" xlink:href="#path-33"/><use fill="#1D1E31" fillOpacity=".12" xlink:href="#path-33"/></g><path id="corner-right" fill="#1D1E31" d="M519.047619,218.987217 L527.452793,243.43189 L527.452793,243.43189 C527.660662,244.036433 527.616665,244.699175 527.330706,245.270936 L518.253968,263.419406 L519.047619,218.987217 Z"/><path id="corner-left" fill="#1D1E31" d="M29.814604,218.193785 L37.9799257,243.465836 L37.9799257,243.465836 C38.1688425,244.050542 38.1243685,244.685649 37.8558056,245.238319 L29.0209532,263.419406 L29.814604,218.193785 Z" transform="translate(33.558096, 240.806596) scale(-1, 1) translate(-33.558096, -240.806596)"/><g id="buttons" transform="translate(34.693824, 218.193785)"><mask id="mask-35" fill="#fff"><use xlink:href="#path-34"/></mask><use id="Rectangle-16" fill="#1D1E31" xlink:href="#path-34"/><g id="Group-5" mask="url(#mask-35)"><g transform="translate(0.814113, 2.380296)"><g id="Group-3" transform="translate(226.976994, 0.000000)"><rect id="Rectangle-14" width="15.32" height="40.465" x="0" y="0" fill="#FAAE40"/><rect id="Rectangle-15" width="16.086" height="19.851" x="0" y="20.614" fill="#1D1E31" opacity=".5"/><rect id="Rectangle-12" width="15.32" height="3.817" x="0" y="16.797" fill="#FFF" opacity=".5"/><path id="Path-6" fill="#1D1E31" d="M15.3204742,6.10792895 L12.2351122,18.7430616 L12.2351122,18.7430616 C12.1798063,18.9695494 12.1769258,19.2056728 12.22669,19.4334424 L15.3204742,33.5936092 L15.3204742,6.10792895 Z"/><path id="Path-6-Copy" fill="#1D1E31" d="M1.52252886,6.10792895 L0.0105616141,18.9171608 L0.0105616141,18.9171608 C-0.00278358342,19.0302199 -0.00348425394,19.1444144 0.00847258201,19.2576288 L1.52252886,33.5936092 L1.52252886,6.10792895 Z" transform="translate(0.761264, 19.850769) scale(-1, 1) translate(-0.761264, -19.850769)"/></g><g id="Group-3-Copy-14" transform="translate(340.348503, 0.000000)"><rect id="Rectangle-14" width="15.32" height="40.465" x="0" y="0" fill="#FAAE40"/><rect id="Rectangle-15" width="16.086" height="19.851" x="0" y="20.614" fill="#1D1E31" opacity=".5"/><rect id="Rectangle-12" width="15.32" height="3.817" x="0" y="16.797" fill="#FFF" opacity=".5"/><path id="Path-6" fill="#1D1E31" d="M15.3204742,6.10792895 L14.4556553,18.9900692 L14.4556553,18.9900692 C14.4513091,19.0548097 14.4510805,19.1197608 14.454971,19.1845302 L15.3204742,33.5936092 L15.3204742,6.10792895 Z"/><path id="Path-6-Copy" fill="#1D1E31" d="M3.77157254,6.10792895 L0.0626367387,18.6766189 L0.0626367387,18.6766189 C-0.016632732,18.945244 -0.0207414466,19.2304603 0.05075732,19.5012574 L3.77157254,33.5936092 L3.77157254,6.10792895 Z" transform="translate(1.885786, 19.850769) scale(-1, 1) translate(-1.885786, -19.850769)"/></g><g id="Group-3-Copy-16" transform="translate(372.521499, 0.000000)"><rect id="Rectangle-14" width="15.32" height="40.465" x="0" y="0" fill="#FAAE40"/><rect id="Rectangle-15" width="16.086" height="19.851" x="0" y="20.614" fill="#1D1E31" opacity=".5"/><rect id="Rectangle-12" width="15.32" height="3.817" x="0" y="16.797" fill="#FFF" opacity=".5"/><path id="Path-6" fill="#1D1E31" d="M15.3204742,6.10792895 L14.4556553,18.9900692 L14.4556553,18.9900692 C14.4513091,19.0548097 14.4510805,19.1197608 14.454971,19.1845302 L15.3204742,33.5936092 L15.3204742,6.10792895 Z"/><path id="Path-6-Copy" fill="#1D1E31" d="M3.77157254,6.10792895 L0.0626367387,18.6766189 L0.0626367387,18.6766189 C-0.016632732,18.945244 -0.0207414466,19.2304603 0.05075732,19.5012574 L3.77157254,33.5936092 L3.77157254,6.10792895 Z" transform="translate(1.885786, 19.850769) scale(-1, 1) translate(-1.885786, -19.850769)"/></g><g id="Group-3-Copy-18" transform="translate(404.694495, 0.000000)"><rect id="Rectangle-14" width="15.32" height="40.465" x="0" y="0" fill="#FAAE40"/><rect id="Rectangle-15" width="16.086" height="19.851" x="0" y="20.614" fill="#1D1E31" opacity=".5"/><rect id="Rectangle-12" width="15.32" height="3.817" x="0" y="16.797" fill="#FFF" opacity=".5"/><path id="Path-6" fill="#1D1E31" d="M15.3204742,6.10792895 L14.4556553,18.9900692 L14.4556553,18.9900692 C14.4513091,19.0548097 14.4510805,19.1197608 14.454971,19.1845302 L15.3204742,33.5936092 L15.3204742,6.10792895 Z"/><path id="Path-6-Copy" fill="#1D1E31" d="M3.77157254,6.10792895 L0.0626367387,18.6766189 L0.0626367387,18.6766189 C-0.016632732,18.945244 -0.0207414466,19.2304603 0.05075732,19.5012574 L3.77157254,33.5936092 L3.77157254,6.10792895 Z" transform="translate(1.885786, 19.850769) scale(-1, 1) translate(-1.885786, -19.850769)"/></g><g id="Group-3-Copy-22" transform="translate(452.953988, 0.000000)"><rect id="Rectangle-14" width="15.32" height="40.465" x="0" y="0" fill="#FAAE40"/><rect id="Rectangle-15" width="16.086" height="19.851" x="0" y="20.614" fill="#1D1E31" opacity=".5"/><rect id="Rectangle-12" width="15.32" height="3.817" x="0" y="16.797" fill="#FFF" opacity=".5"/><path id="Path-6" fill="#1D1E31" d="M15.3204742,6.10792895 L14.4556553,18.9900692 L14.4556553,18.9900692 C14.4513091,19.0548097 14.4510805,19.1197608 14.454971,19.1845302 L15.3204742,33.5936092 L15.3204742,6.10792895 Z"/><path id="Path-6-Copy" fill="#1D1E31" d="M3.77157254,6.10792895 L0.0626367387,18.6766189 L0.0626367387,18.6766189 C-0.016632732,18.945244 -0.0207414466,19.2304603 0.05075732,19.5012574 L3.77157254,33.5936092 L3.77157254,6.10792895 Z" transform="translate(1.885786, 19.850769) scale(-1, 1) translate(-1.885786, -19.850769)"/></g><g id="Group-3-Copy-11" transform="translate(128.925959, 0.000000)"><rect id="Rectangle-14" width="15.32" height="40.465" x=".766" y="0" fill="#FAAE40"/><rect id="Rectangle-15" width="16.086" height="19.851" x=".766" y="20.614" fill="#1D1E31" opacity=".5"/><rect id="Rectangle-12" width="15.32" height="3.817" x=".766" y="16.797" fill="#FFF" opacity=".5"/><path id="Path-6" fill="#1D1E31" d="M16.0864979,6.10792895 L13.0011359,18.7430616 L13.0011359,18.7430616 C12.94583,18.9695494 12.9429495,19.2056728 12.9927137,19.4334424 L16.0864979,33.5936092 L16.0864979,6.10792895 Z"/><path id="Path-6-Copy" fill="#1D1E31" d="M1.29420872,4.58094671 L0.532247605,19.0103438 L0.532247605,19.0103438 C0.529540918,19.0616009 0.529412093,19.1129615 0.531861619,19.1642315 L1.29420872,35.1205915 L1.29420872,4.58094671 Z" transform="translate(1.030116, 19.850769) scale(-1, 1) translate(-1.030116, -19.850769)"/></g><g id="Group-3-Copy-27" transform="translate(32.406972, 0.000000)"><rect id="Rectangle-14" width="15.32" height="40.465" x=".766" y="0" fill="#FAAE40"/><rect id="Rectangle-15" width="16.086" height="19.851" x=".766" y="20.614" fill="#1D1E31" opacity=".5"/><rect id="Rectangle-12" width="15.32" height="3.817" x=".766" y="16.797" fill="#FFF" opacity=".5"/><path id="Path-6" fill="#1D1E31" d="M16.0864979,6.10792895 L13.0011359,18.7430616 L13.0011359,18.7430616 C12.94583,18.9695494 12.9429495,19.2056728 12.9927137,19.4334424 L16.0864979,33.5936092 L16.0864979,6.10792895 Z"/><path id="Path-6-Copy" fill="#1D1E31" d="M1.29420872,4.58094671 L0.532247605,19.0103438 L0.532247605,19.0103438 C0.529540918,19.0616009 0.529412093,19.1129615 0.531861619,19.1642315 L1.29420872,35.1205915 L1.29420872,4.58094671 Z" transform="translate(1.030116, 19.850769) scale(-1, 1) translate(-1.030116, -19.850769)"/></g><g id="Group-3-Copy-2" transform="translate(243.063492, 0.000000)"><rect id="Rectangle-14" width="15.32" height="40.465" x="0" y="0" fill="#FAAE40"/><rect id="Rectangle-15" width="16.086" height="19.851" x="0" y="20.614" fill="#1D1E31" opacity=".5"/><rect id="Rectangle-12" width="15.32" height="3.817" x="0" y="16.797" fill="#FFF" opacity=".5"/><path id="Path-6" fill="#1D1E31" d="M15.3204742,6.10792895 L12.9660072,18.8230608 L12.9660072,18.8230608 C12.9336375,18.9978711 12.931944,19.1769819 12.9610026,19.352373 L15.3204742,33.5936092 L15.3204742,6.10792895 Z"/><path id="Path-6-Copy" fill="#1D1E31" d="M2.27673737,6.10792895 L0.0234614686,18.8342776 L0.0234614686,18.8342776 C-0.0061948954,19.0017747 -0.00774721395,19.1730416 0.0188682262,19.3410487 L2.27673737,33.5936092 L2.27673737,6.10792895 Z" transform="translate(1.138369, 19.850769) scale(-1, 1) translate(-1.138369, -19.850769)"/></g><g id="Group-3-Copy-12" transform="translate(145.778481, 0.000000)"><rect id="Rectangle-14" width="15.32" height="40.465" x="0" y="0" fill="#FAAE40"/><rect id="Rectangle-15" width="16.086" height="19.851" x="0" y="20.614" fill="#1D1E31" opacity=".5"/><rect id="Rectangle-12" width="15.32" height="3.817" x="0" y="16.797" fill="#FFF" opacity=".5"/><path id="Path-6" fill="#1D1E31" d="M15.3204742,6.10792895 L12.2351122,18.7430616 L12.2351122,18.7430616 C12.1798063,18.9695494 12.1769258,19.2056728 12.22669,19.4334424 L15.3204742,33.5936092 L15.3204742,6.10792895 Z"/><path id="Path-6-Copy" fill="#1D1E31" d="M1.52395264,4.58094671 L0.00847258195,18.9304084 L0.00847258195,18.9304084 C-0.0025432033,19.0347123 -0.00281794376,19.1398719 0.0076526844,19.244232 L1.52395264,34.3571003 L1.52395264,4.58094671 Z" transform="translate(0.761976, 19.469024) scale(-1, 1) translate(-0.761976, -19.469024)"/></g><g id="Group-3-Copy-28" transform="translate(49.259494, 0.000000)"><rect id="Rectangle-14" width="15.32" height="40.465" x="0" y="0" fill="#FAAE40"/><rect id="Rectangle-15" width="16.086" height="19.851" x="0" y="20.614" fill="#1D1E31" opacity=".5"/><rect id="Rectangle-12" width="15.32" height="3.817" x="0" y="16.797" fill="#FFF" opacity=".5"/><path id="Path-6" fill="#1D1E31" d="M15.3204742,6.10792895 L12.2351122,18.7430616 L12.2351122,18.7430616 C12.1798063,18.9695494 12.1769258,19.2056728 12.22669,19.4334424 L15.3204742,33.5936092 L15.3204742,6.10792895 Z"/><path id="Path-6-Copy" fill="#1D1E31" d="M1.52395264,4.58094671 L0.00847258195,18.9304084 L0.00847258195,18.9304084 C-0.0025432033,19.0347123 -0.00281794376,19.1398719 0.0076526844,19.244232 L1.52395264,34.3571003 L1.52395264,4.58094671 Z" transform="translate(0.761976, 19.469024) scale(-1, 1) translate(-0.761976, -19.469024)"/></g><g id="Group-3-Copy-3" transform="translate(259.149990, 0.000000)"><rect id="Rectangle-14" width="15.32" height="40.465" x="0" y="0" fill="#F38020"/><rect id="Rectangle-15" width="16.086" height="19.851" x="0" y="20.614" fill="#1D1E31" opacity=".5"/><rect id="Rectangle-12" width="15.32" height="3.817" x="0" y="16.797" fill="#FFF" opacity=".5"/><path id="Path-6" fill="#1D1E31" d="M15.3204742,6.10792895 L12.9660072,18.8230608 L12.9660072,18.8230608 C12.9336375,18.9978711 12.931944,19.1769819 12.9610026,19.352373 L15.3204742,33.5936092 L15.3204742,6.10792895 Z"/><path id="Path-6-Copy" fill="#1D1E31" d="M2.27673737,6.10792895 L0.0234614686,18.8342776 L0.0234614686,18.8342776 C-0.0061948954,19.0017747 -0.00774721395,19.1730416 0.0188682262,19.3410487 L2.27673737,33.5936092 L2.27673737,6.10792895 Z" transform="translate(1.138369, 19.850769) scale(-1, 1) translate(-1.138369, -19.850769)"/></g><g id="Group-3-Copy-8" transform="translate(161.864979, 0.000000)"><rect id="Rectangle-14" width="15.32" height="40.465" x="0" y="0" fill="#F38020"/><rect id="Rectangle-15" width="16.086" height="19.851" x="0" y="20.614" fill="#1D1E31" opacity=".5"/><rect id="Rectangle-12" width="15.32" height="3.817" x="0" y="16.797" fill="#FFF" opacity=".5"/><path id="Path-6" fill="#1D1E31" d="M15.3204742,6.10792895 L12.2351122,18.7430616 L12.2351122,18.7430616 C12.1798063,18.9695494 12.1769258,19.2056728 12.22669,19.4334424 L15.3204742,33.5936092 L15.3204742,6.10792895 Z"/><path id="Path-6-Copy" fill="#1D1E31" d="M2.2807778,4.58094671 L0.0188682258,18.859012 L0.0188682258,18.859012 C-0.00510384051,19.0103331 -0.00624017242,19.1643943 0.0154971634,19.3160525 L2.2807778,35.1205915 L2.2807778,4.58094671 Z" transform="translate(1.140389, 19.850769) scale(-1, 1) translate(-1.140389, -19.850769)"/></g><g id="Group-3-Copy-24" transform="translate(65.345992, 0.000000)"><rect id="Rectangle-14" width="15.32" height="40.465" x="0" y="0" fill="#F38020"/><rect id="Rectangle-15" width="16.086" height="19.851" x="0" y="20.614" fill="#1D1E31" opacity=".5"/><rect id="Rectangle-12" width="15.32" height="3.817" x="0" y="16.797" fill="#FFF" opacity=".5"/><path id="Path-6" fill="#1D1E31" d="M15.3204742,6.10792895 L11.5126873,18.6662704 L11.5126873,18.6662704 C11.4292713,18.9413821 11.4249514,19.2344144 11.5002214,19.5118655 L15.3204742,33.5936092 L15.3204742,6.10792895 Z"/><path id="Path-6-Copy" fill="#1D1E31" d="M1.52433728,4.58094671 L0.00847258197,18.9340504 L0.00847258197,18.9340504 C-0.00228875164,19.035945 -0.00280015933,19.1386623 0.00694604169,19.2406591 L1.52433728,35.1205915 L1.52433728,4.58094671 Z" transform="translate(0.762169, 19.850769) scale(-1, 1) translate(-0.762169, -19.850769)"/></g><g id="Group-3-Copy-4" transform="translate(275.236488, 0.000000)"><rect id="Rectangle-14" width="15.32" height="40.465" x="0" y="0" fill="#F38020"/><rect id="Rectangle-15" width="16.086" height="19.851" x="0" y="20.614" fill="#1D1E31" opacity=".5"/><rect id="Rectangle-12" width="15.32" height="3.817" x="0" y="16.797" fill="#FFF" opacity=".5"/><path id="Path-6" fill="#1D1E31" d="M15.3204742,6.10792895 L13.7110717,18.8655924 L13.7110717,18.8655924 C13.6925258,19.012605 13.6954078,19.1615306 13.7196276,19.3077156 L16.0864979,33.5936092 L15.3204742,6.10792895 Z"/><path id="Path-6-Copy" fill="#1D1E31" d="M3.02637095,6.10792895 L0.0409821619,18.7538832 L0.0409821619,18.7538832 C-0.0108485026,18.9734352 -0.013549895,19.2017248 0.0330709857,19.4224419 L3.02637095,33.5936092 L3.02637095,6.10792895 Z" transform="translate(1.513185, 19.850769) scale(-1, 1) translate(-1.513185, -19.850769)"/></g><g id="Group-3-Copy-9" transform="translate(177.951477, 0.000000)"><rect id="Rectangle-14" width="15.32" height="40.465" x="0" y="0" fill="#F38020"/><rect id="Rectangle-15" width="16.086" height="19.851" x="0" y="20.614" fill="#1D1E31" opacity=".5"/><rect id="Rectangle-12" width="15.32" height="3.817" x="0" y="16.797" fill="#FFF" opacity=".5"/><path id="Path-6" fill="#1D1E31" d="M15.3204742,6.10792895 L12.9733611,18.7833466 L12.9733611,18.7833466 C12.936216,18.9839461 12.9395131,19.1899445 12.9830589,19.3892526 L16.0864979,33.5936092 L15.3204742,6.10792895 Z"/><path id="Path-6-Copy" fill="#1D1E31" d="M1.52252886,6.10792895 L0.0105616141,18.9171608 L0.0105616141,18.9171608 C-0.00278358342,19.0302199 -0.00348425394,19.1444144 0.00847258201,19.2576288 L1.52252886,33.5936092 L1.52252886,6.10792895 Z" transform="translate(0.761264, 19.850769) scale(-1, 1) translate(-0.761264, -19.850769)"/></g><g id="Group-3-Copy-25" transform="translate(81.432489, 0.000000)"><rect id="Rectangle-14" width="15.32" height="40.465" x="0" y="0" fill="#F38020"/><rect id="Rectangle-15" width="16.086" height="19.851" x="0" y="20.614" fill="#1D1E31" opacity=".5"/><rect id="Rectangle-12" width="15.32" height="3.817" x="0" y="16.797" fill="#FFF" opacity=".5"/><path id="Path-6" fill="#1D1E31" d="M15.3204742,6.10792895 L12.244704,18.7037812 L12.244704,18.7037812 C12.1832769,18.9553366 12.1866192,19.2183581 12.2544184,19.4682714 L16.0864979,33.5936092 L15.3204742,6.10792895 Z"/><path id="Path-6-Copy" fill="#1D1E31" d="M1.52252886,6.10792895 L0.0105616141,18.9171608 L0.0105616141,18.9171608 C-0.00278358342,19.0302199 -0.00348425394,19.1444144 0.00847258201,19.2576288 L1.52252886,33.5936092 L1.52252886,6.10792895 Z" transform="translate(0.761264, 19.850769) scale(-1, 1) translate(-0.761264, -19.850769)"/></g><g id="Group-3-Copy-5" transform="translate(291.322986, 0.000000)"><rect id="Rectangle-14" width="15.32" height="40.465" x="0" y="0" fill="#F38020"/><rect id="Rectangle-15" width="16.086" height="19.851" x="0" y="20.614" fill="#1D1E31" opacity=".5"/><rect id="Rectangle-12" width="15.32" height="3.817" x="0" y="16.797" fill="#FFF" opacity=".5"/><path id="Path-6" fill="#1D1E31" d="M15.3204742,6.10792895 L14.4556553,18.9900692 L14.4556553,18.9900692 C14.4513091,19.0548097 14.4510805,19.1197608 14.454971,19.1845302 L15.3204742,33.5936092 L15.3204742,6.10792895 Z"/><path id="Path-6-Copy" fill="#1D1E31" d="M3.02637095,6.10792895 L0.0409821619,18.7538832 L0.0409821619,18.7538832 C-0.0108485026,18.9734352 -0.013549895,19.2017248 0.0330709857,19.4224419 L3.02637095,33.5936092 L3.02637095,6.10792895 Z" transform="translate(1.513185, 19.850769) scale(-1, 1) translate(-1.513185, -19.850769)"/></g><g id="Group-3-Copy-15" transform="translate(356.435001, 0.000000)"><rect id="Rectangle-14" width="15.32" height="40.465" x="0" y="0" fill="#F38020"/><rect id="Rectangle-15" width="16.086" height="19.851" x="0" y="20.614" fill="#1D1E31" opacity=".5"/><rect id="Rectangle-12" width="15.32" height="3.817" x="0" y="16.797" fill="#FFF" opacity=".5"/><path id="Path-6" fill="#1D1E31" d="M15.3204742,6.10792895 L14.4556553,18.9900692 L14.4556553,18.9900692 C14.4513091,19.0548097 14.4510805,19.1197608 14.454971,19.1845302 L15.3204742,33.5936092 L15.3204742,6.10792895 Z"/><path id="Path-6-Copy" fill="#1D1E31" d="M3.02637095,6.10792895 L0.0409821619,18.7538832 L0.0409821619,18.7538832 C-0.0108485026,18.9734352 -0.013549895,19.2017248 0.0330709857,19.4224419 L3.02637095,33.5936092 L3.02637095,6.10792895 Z" transform="translate(1.513185, 19.850769) scale(-1, 1) translate(-1.513185, -19.850769)"/></g><g id="Group-3-Copy-17" transform="translate(388.607997, 0.000000)"><rect id="Rectangle-14" width="15.32" height="40.465" x="0" y="0" fill="#F38020"/><rect id="Rectangle-15" width="16.086" height="19.851" x="0" y="20.614" fill="#1D1E31" opacity=".5"/><rect id="Rectangle-12" width="15.32" height="3.817" x="0" y="16.797" fill="#FFF" opacity=".5"/><path id="Path-6" fill="#1D1E31" d="M15.3204742,6.10792895 L14.4556553,18.9900692 L14.4556553,18.9900692 C14.4513091,19.0548097 14.4510805,19.1197608 14.454971,19.1845302 L15.3204742,33.5936092 L15.3204742,6.10792895 Z"/><path id="Path-6-Copy" fill="#1D1E31" d="M3.02637095,6.10792895 L0.0409821619,18.7538832 L0.0409821619,18.7538832 C-0.0108485026,18.9734352 -0.013549895,19.2017248 0.0330709857,19.4224419 L3.02637095,33.5936092 L3.02637095,6.10792895 Z" transform="translate(1.513185, 19.850769) scale(-1, 1) translate(-1.513185, -19.850769)"/></g><g id="Group-3-Copy-10" transform="translate(194.037975, 0.000000)"><rect id="Rectangle-14" width="15.32" height="40.465" x="0" y="0" fill="#F38020"/><rect id="Rectangle-15" width="16.086" height="19.851" x="0" y="20.614" fill="#1D1E31" opacity=".5"/><rect id="Rectangle-12" width="15.32" height="3.817" x="0" y="16.797" fill="#FFF" opacity=".5"/><path id="Path-6" fill="#1D1E31" d="M15.3204742,6.10792895 L13.7060191,18.9056444 L13.7060191,18.9056444 C13.6907977,19.0263041 13.6899988,19.1483473 13.7036393,19.269196 L15.3204742,33.5936092 L15.3204742,6.10792895 Z"/><path id="Path-6-Copy" fill="#1D1E31" d="M1.52252886,6.10792895 L0.0105616141,18.9171608 L0.0105616141,18.9171608 C-0.00278358342,19.0302199 -0.00348425394,19.1444144 0.00847258201,19.2576288 L1.52252886,33.5936092 L1.52252886,6.10792895 Z" transform="translate(0.761264, 19.850769) scale(-1, 1) translate(-0.761264, -19.850769)"/></g><g id="Group-3-Copy-26" transform="translate(97.518987, 0.000000)"><rect id="Rectangle-14" width="15.32" height="40.465" x="0" y="0" fill="#F38020"/><rect id="Rectangle-15" width="16.086" height="19.851" x="0" y="20.614" fill="#1D1E31" opacity=".5"/><rect id="Rectangle-12" width="15.32" height="3.817" x="0" y="16.797" fill="#FFF" opacity=".5"/><path id="Path-6" fill="#1D1E31" d="M15.3204742,6.10792895 L12.2351122,18.7430616 L12.2351122,18.7430616 C12.1798063,18.9695494 12.1769258,19.2056728 12.22669,19.4334424 L15.3204742,33.5936092 L15.3204742,6.10792895 Z"/><path id="Path-6-Copy" fill="#1D1E31" d="M1.52252886,6.10792895 L0.0105616141,18.9171608 L0.0105616141,18.9171608 C-0.00278358342,19.0302199 -0.00348425394,19.1444144 0.00847258201,19.2576288 L1.52252886,33.5936092 L1.52252886,6.10792895 Z" transform="translate(0.761264, 19.850769) scale(-1, 1) translate(-0.761264, -19.850769)"/></g><g id="Group-3-Copy-6" transform="translate(308.175507, 0.000000)"><rect id="Rectangle-14" width="15.32" height="40.465" x="0" y="0" fill="#E7E2E9"/><rect id="Rectangle-15" width="16.086" height="19.851" x="0" y="20.614" fill="#1D1E31" opacity=".2"/><rect id="Rectangle-12" width="15.32" height="3.817" x="0" y="16.797" fill="#FFF" opacity=".5"/><path id="Path-6" fill="#1D1E31" d="M15.3204742,6.10792895 L14.4556553,18.9900692 L14.4556553,18.9900692 C14.4513091,19.0548097 14.4510805,19.1197608 14.454971,19.1845302 L15.3204742,33.5936092 L15.3204742,6.10792895 Z"/><path id="Path-6-Copy" fill="#1D1E31" d="M3.02993592,6.10792895 L0.0409821686,18.7689842 L0.0409821686,18.7689842 C-0.0085537513,18.9788158 -0.0132397409,19.1967405 0.0272306335,19.4085076 L3.02993592,35.1205915 L3.02993592,6.10792895 Z" transform="translate(1.514968, 20.614260) scale(-1, 1) translate(-1.514968, -20.614260)"/></g><g id="Group-3-Copy-30" transform="translate(0.000000, 0.000000)"><polygon id="Rectangle-14" fill="#E7E2E9" points="1.794 0 16.32 0 16.32 40.465 1 40.465"/><rect id="Rectangle-15" width="16.086" height="19.851" x="1" y="20.614" fill="#1D1E31" opacity=".2"/><polygon id="Rectangle-12" fill="#FFF" points="1.794 16.797 16.32 16.797 16.32 20.614 1.794 20.614" opacity=".5"/><path id="Path-6" fill="#1D1E31" d="M16.3204742,6.10792895 L13.2351122,18.7430616 L13.2351122,18.7430616 C13.1798063,18.9695494 13.1769258,19.2056728 13.22669,19.4334424 L16.3204742,33.5936092 L16.3204742,6.10792895 Z"/><path id="Path-6-Copy" fill="#1D1E31" d="M4.06179266,-1.13686838e-13 L0.997697824,-2.34840687e-14 L4.82696115,18.811635 L4.82696115,18.811635 C4.8640573,18.9938735 4.86765953,19.1813439 4.83759159,19.3648729 L1.38070968,40.4650293 L4.85544345,40.4650293 L4.06179266,-1.13686838e-13 Z" transform="translate(2.927722, 20.232515) scale(-1, 1) translate(-2.927722, -20.232515)"/></g><g id="Group-3-Copy-7" transform="translate(324.262005, 0.000000)"><rect id="Rectangle-14" width="15.32" height="40.465" x="0" y="0" fill="#E7E2E9"/><rect id="Rectangle-15" width="16.086" height="19.851" x="0" y="20.614" fill="#1D1E31" opacity=".2"/><rect id="Rectangle-12" width="15.32" height="3.817" x="0" y="16.797" fill="#FFF" opacity=".5"/><path id="Path-6" fill="#1D1E31" d="M15.3204742,6.10792895 L14.4556553,18.9900692 L14.4556553,18.9900692 C14.4513091,19.0548097 14.4510805,19.1197608 14.454971,19.1845302 L15.3204742,33.5936092 L15.3204742,6.10792895 Z"/><path id="Path-6-Copy" fill="#1D1E31" d="M3.02993592,6.10792895 L0.0409821686,18.7689842 L0.0409821686,18.7689842 C-0.0085537513,18.9788158 -0.0132397409,19.1967405 0.0272306335,19.4085076 L3.02993592,35.1205915 L3.02993592,6.10792895 Z" transform="translate(1.514968, 20.614260) scale(-1, 1) translate(-1.514968, -20.614260)"/></g><g id="Group-3-Copy-19" transform="translate(420.780993, 0.000000)"><rect id="Rectangle-14" width="15.32" height="40.465" x="0" y="0" fill="#E7E2E9"/><rect id="Rectangle-15" width="16.086" height="19.851" x="0" y="20.614" fill="#1D1E31" opacity=".2"/><rect id="Rectangle-12" width="15.32" height="3.817" x="0" y="16.797" fill="#FFF" opacity=".5"/><path id="Path-6" fill="#1D1E31" d="M15.3204742,6.10792895 L14.4556553,18.9900692 L14.4556553,18.9900692 C14.4513091,19.0548097 14.4510805,19.1197608 14.454971,19.1845302 L15.3204742,33.5936092 L15.3204742,6.10792895 Z"/><path id="Path-6-Copy" fill="#1D1E31" d="M3.02993592,6.10792895 L0.0409821686,18.7689842 L0.0409821686,18.7689842 C-0.0085537513,18.9788158 -0.0132397409,19.1967405 0.0272306335,19.4085076 L3.02993592,35.1205915 L3.02993592,6.10792895 Z" transform="translate(1.514968, 20.614260) scale(-1, 1) translate(-1.514968, -20.614260)"/></g><g id="Group-3-Copy-21" transform="translate(436.867490, 0.000000)"><rect id="Rectangle-14" width="15.32" height="40.465" x="0" y="0" fill="#E7E2E9"/><rect id="Rectangle-15" width="16.086" height="19.851" x="0" y="20.614" fill="#1D1E31" opacity=".2"/><rect id="Rectangle-12" width="15.32" height="3.817" x="0" y="16.797" fill="#FFF" opacity=".5"/><path id="Path-6" fill="#1D1E31" d="M15.3204742,6.10792895 L14.4556553,18.9900692 L14.4556553,18.9900692 C14.4513091,19.0548097 14.4510805,19.1197608 14.454971,19.1845302 L15.3204742,33.5936092 L15.3204742,6.10792895 Z"/><path id="Path-6-Copy" fill="#1D1E31" d="M3.02993592,6.10792895 L0.0409821686,18.7689842 L0.0409821686,18.7689842 C-0.0085537513,18.9788158 -0.0132397409,19.1967405 0.0272306335,19.4085076 L3.02993592,35.1205915 L3.02993592,6.10792895 Z" transform="translate(1.514968, 20.614260) scale(-1, 1) translate(-1.514968, -20.614260)"/></g><g id="Group-3-Copy-23" transform="translate(469.040486, 0.000000)"><rect id="Rectangle-14" width="15.32" height="40.465" x="0" y="0" fill="#E7E2E9"/><rect id="Rectangle-15" width="16.086" height="19.851" x="0" y="20.614" fill="#1D1E31" opacity=".2"/><rect id="Rectangle-12" width="15.32" height="3.817" x="0" y="16.797" fill="#FFF" opacity=".5"/><path id="Path-6" fill="#1D1E31" d="M15.3204742,0 L11.4074744,0 L15.9340999,18.77739 L15.9340999,18.77739 C15.9833748,18.9817928 15.9900445,19.194151 15.9536938,19.4012431 L12.2563793,40.4650293 L15.3204742,40.4650293 L15.3204742,0 Z"/><path id="Path-6-Copy" fill="#1D1E31" d="M3.02993592,6.10792895 L0.0409821686,18.7689842 L0.0409821686,18.7689842 C-0.0085537513,18.9788158 -0.0132397409,19.1967405 0.0272306335,19.4085076 L3.02993592,35.1205915 L3.02993592,6.10792895 Z" transform="translate(1.514968, 20.614260) scale(-1, 1) translate(-1.514968, -20.614260)"/></g><g id="Group-3-Copy" transform="translate(210.890496, 0.000000)"><rect id="Rectangle-14" width="15.32" height="40.465" x="0" y="0" fill="#FAAE40"/><rect id="Rectangle-15" width="16.086" height="19.851" x="0" y="20.614" fill="#1D1E31" opacity=".5"/><rect id="Rectangle-12" width="15.32" height="3.817" x="0" y="16.797" fill="#FFF" opacity=".5"/><path id="Path-6" fill="#1D1E31" d="M15.3204742,6.10792895 L11.5126873,18.6662704 L11.5126873,18.6662704 C11.4292713,18.9413821 11.4249514,19.2344144 11.5002214,19.5118655 L15.3204742,33.5936092 L15.3204742,6.10792895 Z"/><path id="Path-6-Copy" fill="#1D1E31" d="M1.52252886,6.10792895 L0.0105616141,18.9171608 L0.0105616141,18.9171608 C-0.00278358342,19.0302199 -0.00348425394,19.1444144 0.00847258201,19.2576288 L1.52252886,33.5936092 L1.52252886,6.10792895 Z" transform="translate(0.761264, 19.850769) scale(-1, 1) translate(-0.761264, -19.850769)"/></g><g id="Group-3-Copy-13" transform="translate(113.605485, 0.000000)"><rect id="Rectangle-14" width="15.32" height="40.465" x="0" y="0" fill="#FAAE40"/><rect id="Rectangle-15" width="16.086" height="19.851" x="0" y="20.614" fill="#1D1E31" opacity=".5"/><rect id="Rectangle-12" width="15.32" height="3.817" x="0" y="16.797" fill="#FFF" opacity=".5"/><path id="Path-6" fill="#1D1E31" d="M15.3204742,4.58094671 L11.48865,18.7053437 L11.48865,18.7053437 C11.4206886,18.9558546 11.4174954,19.2195263 11.4793702,19.4716094 L15.3204742,35.1205915 L15.3204742,4.58094671 Z"/><path id="Path-6-Copy" fill="#1D1E31" d="M1.5253576,3.81745559 L0.00765268443,18.9443272 L0.00765268443,18.9443272 C-0.00188804883,19.0394191 -0.00250928307,19.1351951 0.00579710638,19.2304028 L1.5253576,36.6475737 L1.5253576,3.81745559 Z" transform="translate(0.762679, 20.232515) scale(-1, 1) translate(-0.762679, -20.232515)"/></g><g id="Group-3-Copy-29" transform="translate(17.086498, 0.000000)"><rect id="Rectangle-14" width="15.32" height="40.465" x="0" y="0" fill="#FAAE40"/><rect id="Rectangle-15" width="16.086" height="19.851" x="0" y="20.614" fill="#1D1E31" opacity=".5"/><rect id="Rectangle-12" width="15.32" height="3.817" x="0" y="16.797" fill="#FFF" opacity=".5"/><path id="Path-6" fill="#1D1E31" d="M15.3204742,4.58094671 L11.48865,18.7053437 L11.48865,18.7053437 C11.4206886,18.9558546 11.4174954,19.2195263 11.4793702,19.4716094 L15.3204742,35.1205915 L15.3204742,4.58094671 Z"/></g></g></g></g></g></g></g></g></g></svg>